<svg xmlns="http://www.w3.org/2000/svg" width="1em" height="1em" viewBox="0 0 24 24"><g fill="none"><path stroke="black" d="M19.9 2.307a.483.483 0 0 0-.9 0l-.43 1.095a.484.484 0 0 1-.272.274l-1.091.432a.486.486 0 0 0 0 .903l1.091.432a.48.48 0 0 1 .272.273L19 6.81c.162.41.74.41.9 0l.43-1.095a.484.484 0 0 1 .273-.273l1.091-.432a.486.486 0 0 0 0-.903l-1.091-.432a.484.484 0 0 1-.273-.274zM16.033 8.13a.483.483 0 0 0-.9 0l-.157.399a.484.484 0 0 1-.272.273l-.398.158a.486.486 0 0 0 0 .903l.398.157c.125.05.223.148.272.274l.157.399c.161.41.739.41.9 0l.157-.4a.484.484 0 0 1 .272-.273l.398-.157a.486.486 0 0 0 0-.903l-.398-.158a.484.484 0 0 1-.272-.273z"/><path fill="black" d="m21.067 11.857l-.642-.388zm-8.924-8.924l-.388-.642zM21.25 12A9.25 9.25 0 0 1 12 21.25v1.5c5.937 0 10.75-4.813 10.75-10.75zM12 21.25A9.25 9.25 0 0 1 2.75 12h-1.5c0 5.937 4.813 10.75 10.75 10.75zM2.75 12A9.25 9.25 0 0 1 12 2.75v-1.5C6.063 1.25 1.25 6.063 1.25 12zm12.75 2.25A5.75 5.75 0 0 1 9.75 8.5h-1.5a7.25 7.25 0 0 0 7.25 7.25zm4.925-2.781A5.746 5.746 0 0 1 15.5 14.25v1.5a7.247 7.247 0 0 0 6.21-3.505zM9.75 8.5a5.747 5.747 0 0 1 2.781-4.925l-.776-1.284A7.246 7.246 0 0 0 8.25 8.5zM12 2.75a.384.384 0 0 1-.268-.118a.285.285 0 0 1-.082-.155c-.004-.031-.002-.121.105-.186l.776 1.284c.503-.304.665-.861.606-1.299c-.062-.455-.42-1.026-1.137-1.026zm9.71 9.495c-.066.107-.156.109-.187.105a.285.285 0 0 1-.155-.082a.384.384 0 0 1-.118-.268h1.5c0-.717-.571-1.075-1.026-1.137c-.438-.059-.995.103-1.299.606z"/></g></svg>