<svg xmlns="http://www.w3.org/2000/svg" width="1em" height="1em" viewBox="0 0 24 24"><path fill="black" fill-rule="evenodd" d="M12 22c5.523 0 10-4.477 10-10S17.523 2 12 2S2 6.477 2 12s4.477 10 10 10m-3.603-6.447a.75.75 0 0 1 1.05-.155c.728.54 1.607.852 2.553.852s1.825-.313 2.553-.852a.75.75 0 1 1 .894 1.204A5.766 5.766 0 0 1 12 17.75a5.766 5.766 0 0 1-3.447-1.148a.75.75 0 0 1-.156-1.049M16 10.5c0 .828-.448 1.5-1 1.5s-1-.672-1-1.5s.448-1.5 1-1.5s1 .672 1 1.5M9 12c.552 0 1-.672 1-1.5S9.552 9 9 9s-1 .672-1 1.5s.448 1.5 1 1.5" clip-rule="evenodd"/></svg>