<svg xmlns="http://www.w3.org/2000/svg" width="1em" height="1em" viewBox="0 0 24 24"><path fill="black" d="m8.962 19.338l.477-.578zM12 5.317l-.552.508a.75.75 0 0 0 1.104 0zm2.829 14.852l.45-.6zm1.671-7.01l-.527.533a.75.75 0 0 0 1.054 0zm1.671 7.01l-.45-.6zm-8.732-1.41C6.385 16.243 2.75 13.774 2.75 9.12h-1.5c0 5.516 4.404 8.465 7.235 10.798zM2.75 9.12c0-2.28 1.232-4.174 2.886-4.964c1.596-.763 3.75-.57 5.812 1.67l1.104-1.016C10.114 2.16 7.268 1.712 4.989 2.8C2.768 3.863 1.25 6.314 1.25 9.12zm5.735 10.798c.512.422 1.062.872 1.62 1.213c.556.34 1.196.62 1.895.62v-1.5c-.301 0-.66-.123-1.114-.4c-.452-.276-.921-.657-1.447-1.09zM22.75 9.12c0-2.805-1.518-5.256-3.74-6.318c-2.278-1.089-5.124-.64-7.562 2.008l1.104 1.016c2.062-2.24 4.216-2.433 5.812-1.67c1.654.79 2.886 2.684 2.886 4.964zm-11 5.94c0-.969.576-1.787 1.37-2.132c.757-.329 1.81-.264 2.853.765l1.054-1.067c-1.433-1.415-3.13-1.671-4.504-1.074a3.817 3.817 0 0 0-2.273 3.508zm2.63 5.71c.278.21.598.449.928.632c.33.183.736.349 1.192.349v-1.5c-.094 0-.238-.036-.463-.16a7.087 7.087 0 0 1-.758-.521zm4.24 0c.765-.572 1.806-1.272 2.62-2.144c.84-.899 1.51-2.047 1.51-3.565h-1.5c0 1.024-.436 1.824-1.106 2.541c-.695.745-1.568 1.328-2.423 1.968zm-.899-1.2a7.087 7.087 0 0 1-.758.52c-.225.125-.369.161-.463.161v1.5c.456 0 .861-.166 1.192-.35c.33-.182.65-.422.929-.63zm5.029-4.51a3.843 3.843 0 0 0-1.06-2.66l-1.085 1.037c.397.415.645.987.645 1.624zm-1.06-2.66a3.676 3.676 0 0 0-2.643-1.149c-1.044-.005-2.121.434-3.074 1.375l1.054 1.067c.71-.7 1.418-.945 2.013-.942c.603.003 1.159.26 1.565.685zm.134.842a9.41 9.41 0 0 0 .926-4.122h-1.5a7.91 7.91 0 0 1-.78 3.475zm-6.545 6.328a48.899 48.899 0 0 0-.434-.32l-.886 1.21l.42.31zm-.434-.32c-1.626-1.191-3.095-2.307-3.095-4.19h-1.5c0 2.767 2.227 4.315 3.709 5.4zm-.906.015c-.827.648-1.433.986-1.939.986v1.5c1.083 0 2.065-.679 2.865-1.306z"/></svg>