<svg width="14" height="15" viewBox="0 0 14 15" fill="none" xmlns="http://www.w3.org/2000/svg">
<ellipse cx="6.95296" cy="7.49998" rx="6.81807" ry="6.9" fill="#EDEDED"/>
<ellipse cx="6.95296" cy="7.49998" rx="6.81807" ry="6.9" fill="#EDEDED"/>
<ellipse cx="6.95296" cy="7.49998" rx="6.81807" ry="6.9" fill="black"/>
<g clip-path="url(#clip0_1513_460)">
<path d="M5.12956 6.19091C4.37695 6.36336 4.00064 6.44944 3.911 6.74079C3.82167 7.03182 4.07805 7.33556 4.59111 7.94271L4.72388 8.09969C4.86951 8.27214 4.94263 8.35853 4.97536 8.46503C5.0081 8.57185 4.99709 8.68703 4.97506 8.91707L4.95487 9.12668C4.87746 9.93695 4.83861 10.3419 5.07296 10.5218C5.30731 10.702 5.65975 10.5376 6.36402 10.2094L6.54667 10.1246C6.74675 10.0311 6.84679 9.98463 6.95295 9.98463C7.05911 9.98463 7.15916 10.0311 7.35955 10.1246L7.54158 10.2094C8.24616 10.5376 8.5986 10.7017 8.83264 10.5221C9.06729 10.3419 9.02844 9.93695 8.95104 9.12668M9.3148 7.94271C9.82786 7.33587 10.0842 7.03213 9.9949 6.74079C9.90526 6.44944 9.52896 6.36305 8.77635 6.19091L8.58177 6.14632C8.36792 6.0974 8.26115 6.07295 8.17518 6.007C8.08951 5.94105 8.03445 5.84104 7.92431 5.64103L7.82396 5.45898C7.43634 4.75553 7.24268 4.40381 6.95295 4.40381C6.66323 4.40381 6.46957 4.75553 6.08195 5.45898" stroke="white" stroke-width="2.1875" stroke-linecap="round"/>
</g>
<defs>
<clipPath id="clip0_1513_460">
<rect width="7.34253" height="7.43077" fill="white" transform="translate(3.28168 3.78455)"/>
</clipPath>
</defs>
</svg>
