<svg width="20" height="20" viewBox="0 0 20 20" fill="none" xmlns="http://www.w3.org/2000/svg">
<circle cx="9.79487" cy="9.93892" r="9.12666" fill="white" stroke="#898989" stroke-width="0.960701"/>
<path d="M15.7198 8.83687L13.1555 11.0749L13.9236 14.4068C13.9643 14.581 13.9527 14.7633 13.8903 14.931C13.8279 15.0986 13.7175 15.2441 13.5728 15.3493C13.4282 15.4545 13.2557 15.5148 13.077 15.5225C12.8983 15.5302 12.7213 15.4851 12.5681 15.3928L9.66201 13.6301L6.76217 15.3928C6.60898 15.4851 6.43196 15.5302 6.25326 15.5225C6.07456 15.5148 5.90211 15.4545 5.75746 15.3493C5.61281 15.2441 5.50238 15.0986 5.43998 14.931C5.37759 14.7633 5.36599 14.581 5.40664 14.4068L6.17367 11.0783L3.60874 8.83687C3.47307 8.71987 3.37498 8.56542 3.32674 8.39288C3.27851 8.22035 3.28229 8.03742 3.33761 7.86702C3.39293 7.69663 3.49733 7.54636 3.63771 7.43506C3.77809 7.32377 3.94821 7.25639 4.12673 7.24139L7.5076 6.94856L8.82731 3.80081C8.89623 3.63565 9.01248 3.49456 9.16141 3.39532C9.31035 3.29609 9.48532 3.24313 9.66429 3.24313C9.84326 3.24313 10.0182 3.29609 10.1672 3.39532C10.3161 3.49456 10.4323 3.63565 10.5013 3.80081L11.825 6.94856L15.2047 7.24139C15.3832 7.25639 15.5533 7.32377 15.6937 7.43506C15.8341 7.54636 15.9385 7.69663 15.9938 7.86702C16.0491 8.03742 16.0529 8.22035 16.0047 8.39288C15.9564 8.56542 15.8583 8.71987 15.7227 8.83687H15.7198Z" fill="#898989"/>
</svg>
